<?xml version="1.0" encoding="UTF-8" standalone="no"?>
<svg xmlns="http://www.w3.org/2000/svg" xmlns:xlink="http://www.w3.org/1999/xlink" width="128" height="128" version="1.0">
  <defs>
    <linearGradient id="a">
      <stop offset="0" stop-color="#7d451f"/>
      <stop offset=".5" stop-color="#bd5b00"/>
      <stop offset="1" stop-color="#e47f00"/>
    </linearGradient>
    <linearGradient id="b">
      <stop offset="0" stop-color="#fff"/>
      <stop offset=".25" stop-color="#0a9bff"/>
      <stop offset=".49023" stop-color="#fff"/>
      <stop offset=".71833" stop-color="#069bff"/>
      <stop offset="1" stop-color="#fff"/>
    </linearGradient>
    <linearGradient id="e">
      <stop offset="0" stop-color="#bf0d00"/>
      <stop offset="1" stop-color="#d21700"/>
    </linearGradient>
    <linearGradient id="g">
      <stop offset="0" stop-color="#b00800"/>
      <stop offset="1" stop-color="#c20e00"/>
    </linearGradient>
    <linearGradient id="f">
      <stop offset="0" stop-color="#c61c0c"/>
      <stop offset="1" stop-color="#d11300"/>
    </linearGradient>
    <linearGradient id="d">
      <stop offset="0" stop-color="#b8140c"/>
      <stop offset="1" stop-color="#c31100"/>
    </linearGradient>
    <linearGradient id="c">
      <stop offset="0" stop-color="#bb0d00"/>
      <stop offset="1" stop-color="#d61900"/>
    </linearGradient>
    <linearGradient id="x" x1="152.47" x2="242.59" y1="449.55" y2="483.65" gradientTransform="translate(259.25 -20.888)" gradientUnits="userSpaceOnUse">
      <stop offset="0" stop-color="#ffdadb"/>
      <stop offset=".14736" stop-color="#ff8588"/>
      <stop offset=".5" stop-color="#ff8585"/>
      <stop offset=".83985" stop-color="#ff8585"/>
      <stop offset="1" stop-color="#fcc"/>
    </linearGradient>
    <linearGradient id="u" x1="16.399" x2="16.399" y1="54.358" y2="26.452" gradientTransform="translate(382.22 406.51)" gradientUnits="userSpaceOnUse">
      <stop offset="0" stop-color="#ce0b0b"/>
      <stop offset="1" stop-color="#760303"/>
    </linearGradient>
    <linearGradient id="v" x1="25.205" x2="16.492" y1="47.981" y2="42.608" gradientTransform="translate(382.22 406.51)" gradientUnits="userSpaceOnUse">
      <stop offset="0" stop-color="#d51010"/>
      <stop offset="1" stop-color="#760303"/>
    </linearGradient>
    <linearGradient xlink:href="#a" id="s" x1="188.6" x2="201.77" y1="518.57" y2="534.27" gradientTransform="matrix(.89005 -.0982 0 .89545 305.61 28.521)" gradientUnits="userSpaceOnUse"/>
    <linearGradient xlink:href="#b" id="q" x1="207.29" x2="189.89" y1="550.32" y2="517.27" gradientTransform="matrix(.89005 -.0982 0 .89545 305.61 28.521)" gradientUnits="userSpaceOnUse"/>
    <linearGradient xlink:href="#a" id="p" x1="188.6" x2="201.77" y1="518.57" y2="534.27" gradientTransform="matrix(.99397 -.10967 0 1 259.25 -20.888)" gradientUnits="userSpaceOnUse"/>
    <linearGradient xlink:href="#b" id="o" x1="188.42" x2="201.18" y1="541.04" y2="522.22" gradientTransform="matrix(.99397 -.10967 0 1 259.25 -20.888)" gradientUnits="userSpaceOnUse"/>
    <linearGradient id="m" x1="149.93" x2="166.51" y1="500.45" y2="500.45" gradientTransform="translate(259.25 -20.888)" gradientUnits="userSpaceOnUse">
      <stop offset="0" stop-color="#00800b"/>
      <stop offset="1" stop-color="#003c38"/>
    </linearGradient>
    <linearGradient id="l" x1="150.2" x2="171.82" y1="504.25" y2="515.54" gradientTransform="translate(259.25 -20.888)" gradientUnits="userSpaceOnUse">
      <stop offset="0" stop-color="#009835"/>
      <stop offset="1" stop-color="#003a46"/>
    </linearGradient>
    <linearGradient id="k" x1="275.25" x2="286.6" y1="934.49" y2="936.2" gradientTransform="translate(136.29 -448.29)" gradientUnits="userSpaceOnUse">
      <stop offset="0" stop-color="#6ace00"/>
      <stop offset="1" stop-color="#16a600"/>
    </linearGradient>
    <linearGradient id="j" x1="56.146" x2="89.584" y1="106.85" y2="58.323" gradientTransform="translate(382.22 406.51)" gradientUnits="userSpaceOnUse">
      <stop offset="0" stop-color="#fff"/>
      <stop offset=".5" stop-color="#ffffea"/>
      <stop offset="1" stop-color="#fb9633"/>
    </linearGradient>
    <linearGradient id="i" x1="53.813" x2="14.415" y1="109.65" y2="51.153" gradientTransform="translate(382.22 406.51)" gradientUnits="userSpaceOnUse">
      <stop offset="0" stop-color="#ffffea"/>
      <stop offset=".5" stop-color="#ffce8c"/>
      <stop offset="1" stop-color="#ffa438"/>
    </linearGradient>
    <linearGradient xlink:href="#c" id="ab" x1="-161.13" x2="-161.13" y1="577.64" y2="554.46" gradientTransform="matrix(1 0 .5807 .81412 -58.504 -411.14)" gradientUnits="userSpaceOnUse"/>
    <linearGradient xlink:href="#d" id="aa" x1="-161.16" x2="-161.13" y1="568.6" y2="554.46" gradientTransform="matrix(1 0 .5807 .81412 312.6 -20.888)" gradientUnits="userSpaceOnUse"/>
    <linearGradient xlink:href="#e" id="N" x1="-166.75" x2="-166.65" y1="588.71" y2="577.22" gradientTransform="matrix(1 0 .5807 .81412 -91.357 -418.53)" gradientUnits="userSpaceOnUse"/>
    <linearGradient xlink:href="#f" id="M" x1="-166.6" x2="-166.6" y1="560" y2="553.85" gradientTransform="matrix(1 0 .5807 .81412 285.03 -20.888)" gradientUnits="userSpaceOnUse"/>
    <linearGradient xlink:href="#g" id="L" x1="-166.73" x2="-166.71" y1="578.73" y2="563.63" gradientTransform="matrix(1 0 .5807 .81412 285.06 -20.891)" gradientUnits="userSpaceOnUse"/>
    <linearGradient xlink:href="#e" id="K" x1="-166.75" x2="-166.75" y1="588.71" y2="582.64" gradientTransform="matrix(1 0 .5807 .81412 285.02 -20.894)" gradientUnits="userSpaceOnUse"/>
    <linearGradient xlink:href="#c" id="P" x1="-161.13" x2="-161.13" y1="577.64" y2="554.46" gradientTransform="matrix(1 0 .5807 .81412 -85.031 -411.14)" gradientUnits="userSpaceOnUse"/>
    <linearGradient xlink:href="#d" id="O" x1="-161.16" x2="-161.13" y1="568.6" y2="554.46" gradientTransform="matrix(1 0 .5807 .81412 286.08 -20.888)" gradientUnits="userSpaceOnUse"/>
    <linearGradient xlink:href="#e" id="T" x1="-166.75" x2="-166.65" y1="588.71" y2="577.22" gradientTransform="matrix(1 0 .5807 .81412 -78.093 -418.53)" gradientUnits="userSpaceOnUse"/>
    <linearGradient xlink:href="#f" id="S" x1="-166.6" x2="-166.6" y1="560" y2="553.85" gradientTransform="matrix(1 0 .5807 .81412 298.29 -20.888)" gradientUnits="userSpaceOnUse"/>
    <linearGradient xlink:href="#g" id="R" x1="-166.73" x2="-166.71" y1="578.73" y2="563.63" gradientTransform="matrix(1 0 .5807 .81412 298.33 -20.891)" gradientUnits="userSpaceOnUse"/>
    <linearGradient xlink:href="#e" id="Q" x1="-166.75" x2="-166.75" y1="588.71" y2="582.64" gradientTransform="matrix(1 0 .5807 .81412 298.28 -20.894)" gradientUnits="userSpaceOnUse"/>
    <linearGradient xlink:href="#c" id="V" x1="-161.13" x2="-161.13" y1="577.64" y2="554.46" gradientTransform="matrix(1 0 .5807 .81412 -71.767 -411.14)" gradientUnits="userSpaceOnUse"/>
    <linearGradient xlink:href="#d" id="U" x1="-161.16" x2="-161.13" y1="568.6" y2="554.46" gradientTransform="matrix(1 0 .5807 .81412 299.34 -20.888)" gradientUnits="userSpaceOnUse"/>
    <linearGradient xlink:href="#e" id="Z" x1="-166.75" x2="-166.65" y1="588.71" y2="577.22" gradientTransform="matrix(1 0 .5807 .81412 -64.83 -418.53)" gradientUnits="userSpaceOnUse"/>
    <linearGradient xlink:href="#f" id="Y" x1="-166.6" x2="-166.6" y1="560" y2="553.85" gradientTransform="matrix(1 0 .5807 .81412 311.56 -20.888)" gradientUnits="userSpaceOnUse"/>
    <linearGradient xlink:href="#g" id="X" x1="-166.73" x2="-166.71" y1="578.73" y2="563.63" gradientTransform="matrix(1 0 .5807 .81412 311.59 -20.891)" gradientUnits="userSpaceOnUse"/>
    <linearGradient xlink:href="#e" id="W" x1="-166.75" x2="-166.75" y1="588.71" y2="582.64" gradientTransform="matrix(1 0 .5807 .81412 311.54 -20.894)" gradientUnits="userSpaceOnUse"/>
    <linearGradient xlink:href="#e" id="H" x1="-166.75" x2="-166.65" y1="588.71" y2="577.22" gradientTransform="matrix(1 0 .5807 .81412 -104.62 -418.53)" gradientUnits="userSpaceOnUse"/>
    <linearGradient xlink:href="#f" id="G" x1="-166.6" x2="-166.6" y1="560" y2="553.85" gradientTransform="matrix(1 0 .5807 .81412 271.77 -20.888)" gradientUnits="userSpaceOnUse"/>
    <linearGradient xlink:href="#g" id="F" x1="-166.73" x2="-166.71" y1="578.73" y2="563.63" gradientTransform="matrix(1 0 .5807 .81412 271.8 -20.891)" gradientUnits="userSpaceOnUse"/>
    <linearGradient xlink:href="#e" id="E" x1="-166.75" x2="-166.75" y1="588.71" y2="582.64" gradientTransform="matrix(1 0 .5807 .81412 271.75 -20.894)" gradientUnits="userSpaceOnUse"/>
    <linearGradient xlink:href="#c" id="J" x1="-161.13" x2="-161.13" y1="577.64" y2="554.46" gradientTransform="matrix(1 0 .5807 .81412 -98.294 -411.14)" gradientUnits="userSpaceOnUse"/>
    <linearGradient xlink:href="#d" id="I" x1="-161.16" x2="-161.13" y1="568.6" y2="554.46" gradientTransform="matrix(1 0 .5807 .81412 272.81 -20.888)" gradientUnits="userSpaceOnUse"/>
    <linearGradient xlink:href="#c" id="D" x1="-161.13" x2="-161.13" y1="577.64" y2="554.46" gradientTransform="matrix(1 0 .5807 .81412 -111.56 -411.14)" gradientUnits="userSpaceOnUse"/>
    <linearGradient xlink:href="#d" id="C" x1="-161.16" x2="-161.13" y1="568.6" y2="554.46" gradientTransform="matrix(1 0 .5807 .81412 259.55 -20.888)" gradientUnits="userSpaceOnUse"/>
    <linearGradient xlink:href="#e" id="B" x1="-166.75" x2="-166.65" y1="588.71" y2="577.22" gradientTransform="matrix(1 0 .5807 .81412 -117.88 -418.53)" gradientUnits="userSpaceOnUse"/>
    <linearGradient xlink:href="#f" id="A" x1="-166.6" x2="-166.6" y1="560" y2="553.85" gradientTransform="matrix(1 0 .5807 .81412 258.5 -20.888)" gradientUnits="userSpaceOnUse"/>
    <linearGradient xlink:href="#g" id="z" x1="-166.73" x2="-166.71" y1="578.73" y2="563.63" gradientTransform="matrix(1 0 .5807 .81412 258.54 -20.891)" gradientUnits="userSpaceOnUse"/>
    <linearGradient xlink:href="#e" id="y" x1="-166.75" x2="-166.75" y1="588.71" y2="582.64" gradientTransform="matrix(1 0 .5807 .81412 258.49 -20.894)" gradientUnits="userSpaceOnUse"/>
    <linearGradient id="w" x1="410.65" x2="438.38" y1="430.29" y2="470.79" gradientUnits="userSpaceOnUse">
      <stop offset="0" stop-color="#e70209"/>
      <stop offset="1" stop-color="maroon"/>
    </linearGradient>
    <linearGradient id="t" x1="18.457" x2="18.457" y1="97.259" y2="44.057" gradientUnits="userSpaceOnUse">
      <stop offset="0" stop-color="#fff"/>
      <stop offset="1" stop-color="#fff" stop-opacity="0"/>
    </linearGradient>
    <linearGradient id="r" x1="105.89" x2="100.13" y1="62.377" y2="48.52" gradientUnits="userSpaceOnUse">
      <stop offset="0" stop-color="#ff6f01"/>
      <stop offset="1" stop-color="#ffbc50"/>
    </linearGradient>
    <radialGradient id="n" cx="38.207" cy="89.077" r="2.3006" fx="37.964" fy="88.84" gradientTransform="matrix(1.2631 .16676 -.04265 1.1846 -6.2998 -22.883)" gradientUnits="userSpaceOnUse">
      <stop offset="0" stop-color="#ffe3ae"/>
      <stop offset=".603" stop-color="#ce540e"/>
      <stop offset=".84092" stop-color="#911f00"/>
      <stop offset="1" stop-color="#633500"/>
    </radialGradient>
    <filter id="h">
      <feGaussianBlur stdDeviation="1.0895152"/>
    </filter>
  </defs>
  <g transform="translate(-382.7 -406.51)">
    <path fill-rule="evenodd" d="M412.36 426.36c-.66-.01-1.1.4-1.41.75-.3.35-.51.73-.71 1.12-.42.79-.82 1.64-1.07 1.97l-23.47 31c-.56.75-.83 1.66-.56 2.56.27.91 1.27 1.6 2.38 1.6h10.93v39.37c0 .41.25.79.63.94l38.03 15.28c.2.08.42.09.63.03l55.46-14.34c.45-.11.75-.51.75-.97v-37.5l13.41-.84c.36-.03.68-.26.83-.59s.11-.72-.11-1.01l-29.03-38.25c-.19-.25-.49-.41-.81-.4l-65.88-.72z" filter="url(#h)" opacity=".5"/>
    <path fill="url(#i)" fill-rule="evenodd" d="M410.01 435.91h26.49v81.19l-37.54-14-.42-58.47 11.47-8.72z"/>
    <path fill="url(#j)" fill-rule="evenodd" d="M436.03 462.97h55.93v40.13l-55.93 13.84v-53.97z"/>
    <path fill="url(#k)" fill-rule="evenodd" d="M410.66 479.23c-.08.02-.16.05-.22.1-.12.1-.19.28-.19.43v27.25l.5.19 13.13 5.06.5.19v-30.12c0-.3-.19-.57-.5-.63l-13-2.47c-.08-.01-.15-.01-.22 0z"/>
    <path fill="url(#l)" fill-rule="evenodd" d="M410.38 477.45c-1.05.03-1.85.82-1.85 1.94v26.97l1.97.75v-27.35c0-.2.15-.31.35-.28l12.96 2.47c.2.04.32.18.32.38v30.03l2 .75V482.7c0-1.28-1.05-2.51-2.32-2.75l-12.96-2.47c-.16-.03-.32-.03-.47-.03z"/>
    <path fill="url(#m)" fill-rule="evenodd" d="M410.38 477.2c-1.17.04-2.1.95-2.1 2.19v26.87l.5.19v-27.06c0-1.15.87-1.87 2-1.66l13 2.44c1.13.21 2.1 1.38 2.1 2.53v30.31l.5.19v-30.5c0-1.42-1.11-2.74-2.5-3l-13-2.47c-.18-.03-.34-.03-.5-.03zm.28 2.03c-.08.02-.16.05-.22.1-.12.1-.19.28-.19.43v27.25l.5.19v-27.44c0-.04.01-.03 0-.03 0 .01-.01 0 .03 0l13 2.44c.09.02.1.05.1.16v29.93l.5.19v-30.12c0-.3-.19-.57-.5-.63l-13-2.47c-.08-.01-.15-.01-.22 0z"/>
    <path fill="url(#n)" fill-rule="evenodd" d="M40.984 89.478a2.3006 2.3006 0 1 1-4.602 0 2.3006 2.3006 0 1 1 4.602 0z" transform="matrix(.89535 .0877 0 .86345 386.51 415.88)"/>
    <path fill="url(#o)" fill-rule="evenodd" d="m446.54 476.8 11.26-1.24v19.67l-11.26 2.67v-21.1z"/>
    <path fill="none" stroke="navy" stroke-dashoffset="7.2" stroke-linejoin="round" stroke-width="2" d="m447.02 477.24 10.28-1.14v18.75l-10.28 2.42v-20.03z" opacity=".5"/>
    <path fill="none" stroke="url(#p)" stroke-dashoffset="7.2" d="m446.54 476.8 11.26-1.24v19.67l-11.26 2.67v-21.1z"/>
    <path fill="url(#q)" fill-rule="evenodd" d="m473.32 474.18 10.08-1.12v17.62l-10.08 2.39v-18.89z"/>
    <path fill="url(#r)" fill-rule="evenodd" d="m53.989 59.762 2.353 9.674c16.653-2.658 44.188-2.963 53.468-4.837l.78-13.857-54.902 5.36-1.699 3.66z" transform="translate(382.7 406.51)"/>
    <path fill="none" stroke="navy" stroke-dashoffset="7.2" stroke-linejoin="round" stroke-width="1.7909" d="m473.75 474.57 9.21-1.01v16.78l-9.21 2.17v-17.94z" opacity=".5"/>
    <path fill="none" stroke="url(#s)" stroke-dashoffset="7.2" stroke-width=".89545" d="m473.32 474.18 10.08-1.12v17.62l-10.08 2.39v-18.89z"/>
    <path fill="none" stroke="url(#t)" d="M18.457 97.073V45.772" transform="translate(382.7 406.51)"/>
    <path fill="url(#u)" fill-rule="evenodd" stroke="url(#v)" stroke-width=".5" d="M400.45 461.74v-7.75l21.1-26.41H410.5l-24.76 32.74c-.63.83.08 1.42.79 1.42h13.92z"/>
    <path fill="none" stroke="#fa9e9e" stroke-width=".8" d="m387.38 460.57 24.15-32.19"/>
    <path fill="#e70209" fill-rule="evenodd" stroke="url(#w)" d="m409.66 428.27 28.59 42.02 65.49-6.94-27.68-36.19h-64.69l-1.71 1.11z"/>
    <path fill="url(#x)" fill-rule="evenodd" d="m410.46 427.86 29.53 40.76 63.7-5.37-28.41-36.09h-63.46l-1.36.7z"/>
    <path fill="url(#y)" fill-rule="evenodd" d="m428.91 451.73 5.65 7.94h5.94l-5.65-7.94h-5.94z"/>
    <path fill="url(#z)" fill-rule="evenodd" d="m417.99 436.42 10.62 14.91h5.94l-10.66-14.91h-5.9z"/>
    <path fill="url(#A)" fill-rule="evenodd" d="m411.92 427.92 5.78 8.09h5.91l-5.78-8.09h-5.91z"/>
    <path fill="url(#B)" fill-rule="evenodd" d="m52.188 53.562 5.593 7.876 5.531-.563-5.218-7.313h-5.906z" transform="translate(382.7 406.51)"/>
    <path fill="url(#C)" fill-rule="evenodd" d="m418.56 427.92 10.9 15.28h5.91l-10.91-15.28h-5.9z"/>
    <path fill="url(#D)" fill-rule="evenodd" d="m47.031 37.125 16.094 22.563 5.531-.532-15.718-22.031h-5.907z" transform="translate(382.7 406.51)"/>
    <path fill="url(#E)" fill-rule="evenodd" d="m442.17 451.73 5.66 7.94h5.94l-5.66-7.94h-5.94z"/>
    <path fill="url(#F)" fill-rule="evenodd" d="m431.25 436.42 10.62 14.91h5.94l-10.65-14.91h-5.91z"/>
    <path fill="url(#G)" fill-rule="evenodd" d="m425.19 427.92 5.78 8.09h5.9l-5.78-8.09h-5.9z"/>
    <path fill="url(#H)" fill-rule="evenodd" d="m65.438 53.562 4.718 6.657 5.532-.563-4.344-6.094h-5.906z" transform="translate(382.7 406.51)"/>
    <path fill="url(#I)" fill-rule="evenodd" d="m431.82 427.92 10.9 15.28h5.91l-10.91-15.28h-5.9z"/>
    <path fill="url(#J)" fill-rule="evenodd" d="m60.312 37.125 15.219 21.344 5.531-.531-14.843-20.813h-5.907z" transform="translate(382.7 406.51)"/>
    <path fill="url(#K)" fill-rule="evenodd" d="m455.43 451.73 5.66 7.94h5.94l-5.66-7.94h-5.94z"/>
    <path fill="url(#L)" fill-rule="evenodd" d="m444.51 436.42 10.63 14.91h5.94l-10.66-14.91h-5.91z"/>
    <path fill="url(#M)" fill-rule="evenodd" d="m438.45 427.92 5.78 8.09h5.91l-5.78-8.09h-5.91z"/>
    <path fill="url(#N)" fill-rule="evenodd" d="m78.688 53.562 3.843 5.407 5.531-.531-3.468-4.876h-5.906z" transform="translate(382.7 406.51)"/>
    <path fill="url(#O)" fill-rule="evenodd" d="m445.08 427.92 10.91 15.28h5.9l-10.9-15.28h-5.91z"/>
    <path fill="url(#P)" fill-rule="evenodd" d="M73.562 37.125 87.906 57.25l5.532-.562-13.969-19.563h-5.907z" transform="translate(382.7 406.51)"/>
    <path fill="url(#Q)" fill-rule="evenodd" d="m468.7 451.73 5.65 7.94h5.94l-5.65-7.94h-5.94z"/>
    <path fill="url(#R)" fill-rule="evenodd" d="m457.78 436.42 10.62 14.91h5.94l-10.66-14.91h-5.9z"/>
    <path fill="url(#S)" fill-rule="evenodd" d="m451.71 427.92 5.78 8.09h5.91l-5.78-8.09h-5.91z"/>
    <path fill="url(#T)" fill-rule="evenodd" d="m91.969 53.562 2.969 4.188 5.532-.531-2.595-3.657h-5.906z" transform="translate(382.7 406.51)"/>
    <path fill="url(#U)" fill-rule="evenodd" d="m458.35 427.92 10.9 15.28h5.91l-10.91-15.28h-5.9z"/>
    <path fill="url(#V)" fill-rule="evenodd" d="m86.812 37.125 13.468 18.906 5.53-.562-13.091-18.344h-5.907z" transform="translate(382.7 406.51)"/>
    <path fill="url(#W)" fill-rule="evenodd" d="m481.96 451.73 5.66 7.94h5.94l-5.66-7.94h-5.94z"/>
    <path fill="url(#X)" fill-rule="evenodd" d="m471.04 436.42 10.62 14.91h5.94l-10.65-14.91h-5.91z"/>
    <path fill="url(#Y)" fill-rule="evenodd" d="m464.98 427.92 5.78 8.09h5.9l-5.78-8.09h-5.9z"/>
    <path fill="url(#Z)" fill-rule="evenodd" d="m105.22 53.562 2.09 2.969 5.53-.562-1.72-2.407h-5.9z" transform="translate(382.7 406.51)"/>
    <path fill="url(#aa)" fill-rule="evenodd" d="m471.61 427.92 10.9 15.28h4.51l-11.69-15.28h-3.72z"/>
    <path fill="url(#ab)" fill-rule="evenodd" d="m100.09 37.125 12.6 17.656 5.19-.5-13.29-17.156h-4.5z" transform="translate(382.7 406.51)"/>
    <path fill="none" stroke="#ac691a" stroke-dashoffset="7.2" stroke-linejoin="round" stroke-width="1.9677" d="m398.57 462.85.65 39.56 37.42 15.04 54.57-14.11.66-37.97"/>
    <path fill="none" stroke="#620000" stroke-dashoffset="7.2" stroke-linejoin="round" stroke-width="2" d="m436.481 518.39 55.479-14.335v-38.444l14.32-.9-29.047-38.258-65.877-.714c-.929-.01-1.628 2.397-2.375 3.427l-23.468 31c-.8186 1.081-.6053 2.558.9995 2.558h11.928l.001 40.38 38.04 15.286z"/>
  </g>
</svg>